<?xml version="1.0" standalone="no"?>
<!DOCTYPE svg PUBLIC "-//W3C//DTD SVG 20010904//EN"
 "http://www.w3.org/TR/2001/REC-SVG-20010904/DTD/svg10.dtd">
<svg version="1.0" xmlns="http://www.w3.org/2000/svg"
 width="2000.000000pt" height="2000.000000pt" viewBox="0 0 2000.000000 2000.000000"
 preserveAspectRatio="xMidYMid meet">
<metadata>
Created by potrace 1.14, written by Peter Selinger 2001-2017
</metadata>
<g transform="translate(0.000000,2000.000000) scale(0.100000,-0.100000)"
fill="#000000" stroke="none">
<path d="M9665 18474 c-384 -37 -642 -110 -955 -269 -723 -369 -1219 -1083
-1321 -1905 -7 -52 -12 -167 -12 -255 0 -181 16 -263 78 -392 45 -96 85 -154
164 -237 79 -81 155 -135 265 -186 141 -65 181 -72 469 -77 l257 -5 0 -28 c0
-15 11 -71 25 -125 80 -315 311 -566 620 -672 140 -48 216 -53 820 -53 l560 0
365 -366 c201 -201 378 -372 394 -381 45 -24 111 -12 150 26 l31 31 3 225 3
225 -106 0 c-131 0 -182 12 -234 56 -54 47 -68 92 -85 279 -8 88 -18 168 -22
178 -9 24 -50 32 -73 16 -10 -8 -76 -62 -145 -121 -103 -86 -136 -108 -176
-118 -98 -23 -154 6 -300 156 -111 115 -130 148 -130 231 0 56 23 95 141 234
58 68 108 132 112 142 5 12 -1 26 -16 41 -21 21 -38 24 -182 35 -184 14 -213
21 -262 64 -64 56 -73 90 -73 280 0 179 8 217 53 265 46 50 89 62 265 77 92 8
173 15 179 15 7 0 20 11 28 24 22 33 16 42 -107 185 -55 64 -108 134 -119 156
-23 49 -24 113 -4 163 19 45 225 256 277 283 44 23 124 25 172 5 18 -7 91 -64
162 -125 132 -114 166 -130 194 -96 8 10 18 81 26 182 7 91 18 181 25 200 15
46 54 90 103 116 39 21 51 22 220 19 205 -3 234 -12 286 -83 35 -49 37 -59 54
-261 8 -96 18 -163 26 -172 27 -34 59 -18 181 87 143 123 185 147 251 147 70
0 114 -22 187 -93 39 -38 61 -54 58 -42 -97 357 -263 684 -494 970 -97 120
-296 316 -413 407 -365 283 -799 464 -1265 528 -78 11 -631 22 -710 14z"/>
<path d="M11375 16340 c-337 -53 -612 -306 -696 -639 -18 -71 -21 -105 -17
-225 4 -126 8 -151 37 -236 77 -227 223 -393 435 -495 138 -67 197 -79 366
-79 162 0 224 12 347 69 226 104 385 287 463 530 34 107 39 310 11 428 -49
206 -174 390 -344 506 -68 46 -200 106 -277 125 -82 20 -247 28 -325 16z m268
-276 c189 -49 351 -202 409 -387 30 -95 32 -255 4 -337 -65 -194 -215 -342
-401 -396 -80 -23 -230 -23 -310 0 -96 28 -175 76 -251 151 -192 191 -228 464
-92 703 66 118 213 230 349 266 73 20 217 20 292 0z"/>
<path d="M11405 16020 c-124 -26 -241 -98 -315 -191 -81 -102 -111 -190 -111
-324 0 -156 50 -274 161 -379 132 -124 297 -171 472 -135 174 36 335 184 388
357 24 76 27 211 6 288 -58 219 -255 378 -481 389 -44 2 -98 0 -120 -5z"/>
<path d="M12534 16049 c-102 -119 -110 -133 -90 -163 15 -23 69 -36 154 -36
l32 0 -1 118 c-1 64 -4 130 -8 146 -6 30 -7 29 -87 -65z"/>
<path d="M12463 15140 c-12 -5 -24 -18 -28 -30 -7 -22 3 -41 53 -100 l29 -34
31 82 c18 45 32 84 32 87 0 8 -93 5 -117 -5z"/>
<path d="M11876 14557 c-14 -10 -20 -35 -27 -107 -5 -52 -7 -95 -6 -96 6 -6
208 99 205 107 -6 17 -122 109 -138 109 -9 0 -24 -6 -34 -13z"/>
<path d="M5070 13504 c-881 -80 -1696 -401 -2373 -936 -132 -105 -419 -394
-526 -530 -391 -497 -559 -980 -538 -1543 16 -404 110 -732 341 -1190 284
-560 690 -1079 1396 -1785 569 -568 1058 -967 1525 -1242 605 -356 1098 -504
1619 -485 500 18 911 178 1365 529 134 105 433 401 539 535 497 629 814 1389
919 2198 25 194 25 658 -1 865 -60 498 -183 904 -405 1349 -203 402 -440 731
-761 1051 -333 334 -662 568 -1090 779 -429 212 -830 330 -1310 387 -128 15
-598 27 -700 18z m1518 -1010 c481 -71 966 -437 1200 -904 106 -210 149 -367
159 -575 12 -247 -50 -478 -172 -641 -232 -309 -597 -431 -1027 -343 -174 35
-363 117 -543 236 -112 74 -156 110 -273 226 -483 474 -630 1160 -345 1602
206 318 570 463 1001 399z"/>
<path d="M14485 13500 c-537 -48 -969 -166 -1440 -394 -302 -146 -539 -297
-800 -507 -730 -588 -1252 -1472 -1419 -2399 -113 -632 -78 -1228 110 -1858
215 -719 575 -1332 1060 -1802 551 -535 1109 -770 1769 -747 399 14 721 105
1175 332 691 345 1493 1012 2317 1927 490 545 805 1018 1023 1536 242 577 276
1142 99 1675 -54 166 -188 434 -297 597 -322 484 -823 896 -1467 1210 -455
221 -926 360 -1425 420 -123 15 -576 21 -705 10z m1425 -1005 c233 -35 459
-132 676 -291 344 -251 601 -642 668 -1015 57 -315 5 -598 -149 -814 -130
-183 -324 -304 -570 -357 -100 -21 -341 -15 -465 11 -611 130 -1146 667 -1277
1281 -25 117 -25 404 0 504 94 373 376 630 753 685 94 14 261 12 364 -4z"/>
<path d="M8545 4384 c-334 -52 -595 -358 -595 -699 0 -235 85 -393 359 -665
421 -419 913 -666 1471 -741 119 -16 447 -16 560 0 441 61 835 228 1203 508
213 163 460 426 536 572 132 253 104 555 -72 769 -105 127 -251 217 -407 248
-149 30 -333 5 -440 -59 -57 -33 -156 -115 -305 -252 -158 -145 -310 -262
-396 -306 -120 -60 -194 -74 -399 -74 -202 0 -279 14 -393 71 -81 41 -242 162
-362 274 -333 308 -403 348 -620 355 -60 2 -123 1 -140 -1z"/>
</g>
</svg>
